<mxfile host="app.diagrams.net" modified="2023-11-08T20:51:32.177Z" agent="Mozilla/5.0 (Windows NT 10.0; Win64; x64) AppleWebKit/537.36 (KHTML, like Gecko) Chrome/119.0.0.0 Safari/537.36" etag="N11ktvsZZdBAajh7OpFC" version="22.0.8" type="device">
  <diagram name="Pàgina-1" id="5p1RK1gfJNGb53cNKMp1">
    <mxGraphModel dx="3728" dy="1118" grid="1" gridSize="10" guides="1" tooltips="1" connect="1" arrows="1" fold="1" page="1" pageScale="1" pageWidth="1654" pageHeight="1169" math="0" shadow="0">
      <root>
        <mxCell id="0" />
        <mxCell id="1" parent="0" />
        <mxCell id="gsU7J_CmsxOtAL61VXyF-1" value="CICLISTA" style="whiteSpace=wrap;html=1;align=center;strokeWidth=2;fontSize=16;fontStyle=1" parent="1" vertex="1">
          <mxGeometry x="360" y="720" width="120" height="40" as="geometry" />
        </mxCell>
        <mxCell id="gsU7J_CmsxOtAL61VXyF-4" value="Nom" style="ellipse;whiteSpace=wrap;html=1;align=center;" parent="1" vertex="1">
          <mxGeometry x="290" y="780" width="100" height="40" as="geometry" />
        </mxCell>
        <mxCell id="gsU7J_CmsxOtAL61VXyF-5" value="Número dorsal" style="ellipse;whiteSpace=wrap;html=1;align=center;fontStyle=4" parent="1" vertex="1">
          <mxGeometry x="290" y="660" width="100" height="40" as="geometry" />
        </mxCell>
        <mxCell id="gsU7J_CmsxOtAL61VXyF-7" value="Edat" style="ellipse;whiteSpace=wrap;html=1;align=center;" parent="1" vertex="1">
          <mxGeometry x="450" y="660" width="100" height="40" as="geometry" />
        </mxCell>
        <mxCell id="gsU7J_CmsxOtAL61VXyF-11" style="rounded=0;orthogonalLoop=1;jettySize=auto;html=1;endArrow=none;endFill=0;" parent="1" source="gsU7J_CmsxOtAL61VXyF-4" target="gsU7J_CmsxOtAL61VXyF-1" edge="1">
          <mxGeometry relative="1" as="geometry">
            <mxPoint x="336" y="823" as="sourcePoint" />
            <mxPoint x="400" y="780" as="targetPoint" />
          </mxGeometry>
        </mxCell>
        <mxCell id="gsU7J_CmsxOtAL61VXyF-12" style="rounded=0;orthogonalLoop=1;jettySize=auto;html=1;endArrow=none;endFill=0;" parent="1" source="gsU7J_CmsxOtAL61VXyF-5" target="gsU7J_CmsxOtAL61VXyF-1" edge="1">
          <mxGeometry relative="1" as="geometry">
            <mxPoint x="346" y="833" as="sourcePoint" />
            <mxPoint x="410" y="790" as="targetPoint" />
          </mxGeometry>
        </mxCell>
        <mxCell id="gsU7J_CmsxOtAL61VXyF-15" style="rounded=0;orthogonalLoop=1;jettySize=auto;html=1;endArrow=none;endFill=0;" parent="1" source="gsU7J_CmsxOtAL61VXyF-7" target="gsU7J_CmsxOtAL61VXyF-1" edge="1">
          <mxGeometry relative="1" as="geometry">
            <mxPoint x="376" y="863" as="sourcePoint" />
            <mxPoint x="440" y="820" as="targetPoint" />
          </mxGeometry>
        </mxCell>
        <mxCell id="gsU7J_CmsxOtAL61VXyF-40" value="EQUIP" style="whiteSpace=wrap;html=1;align=center;strokeWidth=2;fontSize=16;fontStyle=1" parent="1" vertex="1">
          <mxGeometry x="-80" y="720" width="120" height="40" as="geometry" />
        </mxCell>
        <mxCell id="gsU7J_CmsxOtAL61VXyF-42" value="Nom" style="ellipse;whiteSpace=wrap;html=1;align=center;fontStyle=4" parent="1" vertex="1">
          <mxGeometry x="-140" y="660" width="100" height="40" as="geometry" />
        </mxCell>
        <mxCell id="gsU7J_CmsxOtAL61VXyF-43" style="rounded=0;orthogonalLoop=1;jettySize=auto;html=1;endArrow=none;endFill=0;" parent="1" source="gsU7J_CmsxOtAL61VXyF-42" target="gsU7J_CmsxOtAL61VXyF-40" edge="1">
          <mxGeometry relative="1" as="geometry">
            <mxPoint x="-590" y="810" as="sourcePoint" />
            <mxPoint x="-590" y="770" as="targetPoint" />
          </mxGeometry>
        </mxCell>
        <mxCell id="Hw_j9LHr1kkJMjUZphTQ-1" value="Entrenador" style="ellipse;whiteSpace=wrap;html=1;align=center;" parent="1" vertex="1">
          <mxGeometry y="660" width="100" height="40" as="geometry" />
        </mxCell>
        <mxCell id="Hw_j9LHr1kkJMjUZphTQ-2" style="rounded=0;orthogonalLoop=1;jettySize=auto;html=1;endArrow=none;endFill=0;" parent="1" source="Hw_j9LHr1kkJMjUZphTQ-1" target="gsU7J_CmsxOtAL61VXyF-40" edge="1">
          <mxGeometry relative="1" as="geometry">
            <mxPoint x="-39" y="792" as="sourcePoint" />
            <mxPoint x="-13" y="770" as="targetPoint" />
          </mxGeometry>
        </mxCell>
        <mxCell id="Hw_j9LHr1kkJMjUZphTQ-3" value="pertany" style="shape=rhombus;perimeter=rhombusPerimeter;whiteSpace=wrap;html=1;align=center;" parent="1" vertex="1">
          <mxGeometry x="150" y="720" width="100" height="40" as="geometry" />
        </mxCell>
        <mxCell id="Hw_j9LHr1kkJMjUZphTQ-4" style="rounded=0;orthogonalLoop=1;jettySize=auto;html=1;endArrow=ERoneToMany;endFill=0;edgeStyle=orthogonalEdgeStyle;endSize=12;" parent="1" source="Hw_j9LHr1kkJMjUZphTQ-3" target="gsU7J_CmsxOtAL61VXyF-1" edge="1">
          <mxGeometry relative="1" as="geometry">
            <mxPoint x="1190" y="710" as="sourcePoint" />
            <mxPoint x="1170" y="770" as="targetPoint" />
          </mxGeometry>
        </mxCell>
        <mxCell id="Hw_j9LHr1kkJMjUZphTQ-5" style="rounded=0;orthogonalLoop=1;jettySize=auto;html=1;endArrow=ERone;endFill=0;edgeStyle=orthogonalEdgeStyle;endSize=12;" parent="1" source="Hw_j9LHr1kkJMjUZphTQ-3" target="gsU7J_CmsxOtAL61VXyF-40" edge="1">
          <mxGeometry relative="1" as="geometry">
            <mxPoint x="1200" y="720" as="sourcePoint" />
            <mxPoint x="1180" y="780" as="targetPoint" />
          </mxGeometry>
        </mxCell>
        <mxCell id="Hw_j9LHr1kkJMjUZphTQ-8" value="MALLOT" style="whiteSpace=wrap;html=1;align=center;strokeWidth=2;fontSize=16;fontStyle=1" parent="1" vertex="1">
          <mxGeometry x="760" y="440" width="120" height="40" as="geometry" />
        </mxCell>
        <mxCell id="Hw_j9LHr1kkJMjUZphTQ-10" style="rounded=0;orthogonalLoop=1;jettySize=auto;html=1;endArrow=ERone;endFill=0;edgeStyle=orthogonalEdgeStyle;endSize=12;" parent="1" source="r7K02Fi8UwTzBW3lLoMd-29" target="gsU7J_CmsxOtAL61VXyF-1" edge="1">
          <mxGeometry relative="1" as="geometry">
            <mxPoint x="870" y="790" as="sourcePoint" />
            <mxPoint x="750" y="790" as="targetPoint" />
          </mxGeometry>
        </mxCell>
        <mxCell id="Hw_j9LHr1kkJMjUZphTQ-11" style="rounded=0;orthogonalLoop=1;jettySize=auto;html=1;endArrow=ERzeroToMany;endFill=0;edgeStyle=orthogonalEdgeStyle;endSize=12;" parent="1" source="r7K02Fi8UwTzBW3lLoMd-29" target="Hw_j9LHr1kkJMjUZphTQ-8" edge="1">
          <mxGeometry relative="1" as="geometry">
            <mxPoint x="819.3999999999996" y="560" as="sourcePoint" />
            <mxPoint x="800" y="710" as="targetPoint" />
          </mxGeometry>
        </mxCell>
        <mxCell id="Hw_j9LHr1kkJMjUZphTQ-12" value="Premi" style="ellipse;whiteSpace=wrap;html=1;align=center;" parent="1" vertex="1">
          <mxGeometry x="771.25" y="350" width="100" height="40" as="geometry" />
        </mxCell>
        <mxCell id="Hw_j9LHr1kkJMjUZphTQ-13" value="Tipus" style="ellipse;whiteSpace=wrap;html=1;align=center;" parent="1" vertex="1">
          <mxGeometry x="680" y="390" width="100" height="40" as="geometry" />
        </mxCell>
        <mxCell id="Hw_j9LHr1kkJMjUZphTQ-14" value="Color" style="ellipse;whiteSpace=wrap;html=1;align=center;" parent="1" vertex="1">
          <mxGeometry x="860" y="390" width="100" height="40" as="geometry" />
        </mxCell>
        <mxCell id="Hw_j9LHr1kkJMjUZphTQ-15" style="rounded=0;orthogonalLoop=1;jettySize=auto;html=1;endArrow=none;endFill=0;" parent="1" source="Hw_j9LHr1kkJMjUZphTQ-12" target="Hw_j9LHr1kkJMjUZphTQ-8" edge="1">
          <mxGeometry relative="1" as="geometry">
            <mxPoint x="736" y="363" as="sourcePoint" />
            <mxPoint x="820" y="300" as="targetPoint" />
          </mxGeometry>
        </mxCell>
        <mxCell id="Hw_j9LHr1kkJMjUZphTQ-16" style="rounded=0;orthogonalLoop=1;jettySize=auto;html=1;endArrow=none;endFill=0;" parent="1" source="Hw_j9LHr1kkJMjUZphTQ-13" target="Hw_j9LHr1kkJMjUZphTQ-8" edge="1">
          <mxGeometry relative="1" as="geometry">
            <mxPoint x="746" y="373" as="sourcePoint" />
            <mxPoint x="784" y="300" as="targetPoint" />
          </mxGeometry>
        </mxCell>
        <mxCell id="Hw_j9LHr1kkJMjUZphTQ-17" style="rounded=0;orthogonalLoop=1;jettySize=auto;html=1;endArrow=none;endFill=0;" parent="1" source="Hw_j9LHr1kkJMjUZphTQ-14" target="Hw_j9LHr1kkJMjUZphTQ-8" edge="1">
          <mxGeometry relative="1" as="geometry">
            <mxPoint x="776" y="403" as="sourcePoint" />
            <mxPoint x="856" y="300" as="targetPoint" />
          </mxGeometry>
        </mxCell>
        <mxCell id="r7K02Fi8UwTzBW3lLoMd-2" value="ETAPA" style="whiteSpace=wrap;html=1;align=center;strokeWidth=2;fontSize=16;fontStyle=1" parent="1" vertex="1">
          <mxGeometry x="760" y="720" width="120" height="40" as="geometry" />
        </mxCell>
        <mxCell id="r7K02Fi8UwTzBW3lLoMd-3" value="Inici" style="ellipse;whiteSpace=wrap;html=1;align=center;" parent="1" vertex="1">
          <mxGeometry x="860" y="670" width="100" height="40" as="geometry" />
        </mxCell>
        <mxCell id="r7K02Fi8UwTzBW3lLoMd-4" value="ID" style="ellipse;whiteSpace=wrap;html=1;align=center;fontStyle=4" parent="1" vertex="1">
          <mxGeometry x="680" y="670" width="100" height="40" as="geometry" />
        </mxCell>
        <mxCell id="r7K02Fi8UwTzBW3lLoMd-5" value="Final" style="ellipse;whiteSpace=wrap;html=1;align=center;" parent="1" vertex="1">
          <mxGeometry x="860" y="770" width="100" height="40" as="geometry" />
        </mxCell>
        <mxCell id="r7K02Fi8UwTzBW3lLoMd-6" style="rounded=0;orthogonalLoop=1;jettySize=auto;html=1;endArrow=none;endFill=0;" parent="1" source="r7K02Fi8UwTzBW3lLoMd-3" target="r7K02Fi8UwTzBW3lLoMd-2" edge="1">
          <mxGeometry relative="1" as="geometry">
            <mxPoint x="736" y="643" as="sourcePoint" />
            <mxPoint x="820" y="580" as="targetPoint" />
          </mxGeometry>
        </mxCell>
        <mxCell id="r7K02Fi8UwTzBW3lLoMd-7" style="rounded=0;orthogonalLoop=1;jettySize=auto;html=1;endArrow=none;endFill=0;" parent="1" source="r7K02Fi8UwTzBW3lLoMd-4" target="r7K02Fi8UwTzBW3lLoMd-2" edge="1">
          <mxGeometry relative="1" as="geometry">
            <mxPoint x="746" y="653" as="sourcePoint" />
            <mxPoint x="784" y="580" as="targetPoint" />
          </mxGeometry>
        </mxCell>
        <mxCell id="r7K02Fi8UwTzBW3lLoMd-8" style="rounded=0;orthogonalLoop=1;jettySize=auto;html=1;endArrow=none;endFill=0;" parent="1" source="r7K02Fi8UwTzBW3lLoMd-5" target="r7K02Fi8UwTzBW3lLoMd-2" edge="1">
          <mxGeometry relative="1" as="geometry">
            <mxPoint x="776" y="683" as="sourcePoint" />
            <mxPoint x="856" y="580" as="targetPoint" />
          </mxGeometry>
        </mxCell>
        <mxCell id="r7K02Fi8UwTzBW3lLoMd-9" value="PORT MUNTANYA" style="whiteSpace=wrap;html=1;align=center;strokeWidth=2;fontSize=16;fontStyle=1" parent="1" vertex="1">
          <mxGeometry x="760" y="920" width="120" height="40" as="geometry" />
        </mxCell>
        <mxCell id="r7K02Fi8UwTzBW3lLoMd-10" value="Altura" style="ellipse;whiteSpace=wrap;html=1;align=center;" parent="1" vertex="1">
          <mxGeometry x="711.25" y="1020" width="100" height="40" as="geometry" />
        </mxCell>
        <mxCell id="r7K02Fi8UwTzBW3lLoMd-11" value="Nom" style="ellipse;whiteSpace=wrap;html=1;align=center;fontStyle=4" parent="1" vertex="1">
          <mxGeometry x="661.25" y="970" width="100" height="40" as="geometry" />
        </mxCell>
        <mxCell id="r7K02Fi8UwTzBW3lLoMd-12" value="Categoria" style="ellipse;whiteSpace=wrap;html=1;align=center;" parent="1" vertex="1">
          <mxGeometry x="881.25" y="970" width="100" height="40" as="geometry" />
        </mxCell>
        <mxCell id="r7K02Fi8UwTzBW3lLoMd-13" style="rounded=0;orthogonalLoop=1;jettySize=auto;html=1;endArrow=none;endFill=0;" parent="1" source="r7K02Fi8UwTzBW3lLoMd-10" target="r7K02Fi8UwTzBW3lLoMd-9" edge="1">
          <mxGeometry relative="1" as="geometry">
            <mxPoint x="737.25" y="843" as="sourcePoint" />
            <mxPoint x="821.25" y="780" as="targetPoint" />
          </mxGeometry>
        </mxCell>
        <mxCell id="r7K02Fi8UwTzBW3lLoMd-14" style="rounded=0;orthogonalLoop=1;jettySize=auto;html=1;endArrow=none;endFill=0;" parent="1" source="r7K02Fi8UwTzBW3lLoMd-11" target="r7K02Fi8UwTzBW3lLoMd-9" edge="1">
          <mxGeometry relative="1" as="geometry">
            <mxPoint x="747.25" y="853" as="sourcePoint" />
            <mxPoint x="785.25" y="780" as="targetPoint" />
          </mxGeometry>
        </mxCell>
        <mxCell id="r7K02Fi8UwTzBW3lLoMd-15" style="rounded=0;orthogonalLoop=1;jettySize=auto;html=1;endArrow=none;endFill=0;" parent="1" source="r7K02Fi8UwTzBW3lLoMd-12" target="r7K02Fi8UwTzBW3lLoMd-9" edge="1">
          <mxGeometry relative="1" as="geometry">
            <mxPoint x="777.25" y="883" as="sourcePoint" />
            <mxPoint x="857.25" y="780" as="targetPoint" />
          </mxGeometry>
        </mxCell>
        <mxCell id="r7K02Fi8UwTzBW3lLoMd-16" value="Pendent" style="ellipse;whiteSpace=wrap;html=1;align=center;" parent="1" vertex="1">
          <mxGeometry x="831.25" y="1020" width="100" height="40" as="geometry" />
        </mxCell>
        <mxCell id="r7K02Fi8UwTzBW3lLoMd-17" style="rounded=0;orthogonalLoop=1;jettySize=auto;html=1;endArrow=none;endFill=0;" parent="1" source="r7K02Fi8UwTzBW3lLoMd-16" target="r7K02Fi8UwTzBW3lLoMd-9" edge="1">
          <mxGeometry relative="1" as="geometry">
            <mxPoint x="892.25" y="916" as="sourcePoint" />
            <mxPoint x="867.25" y="930" as="targetPoint" />
          </mxGeometry>
        </mxCell>
        <mxCell id="r7K02Fi8UwTzBW3lLoMd-18" value="guanya" style="shape=rhombus;perimeter=rhombusPerimeter;whiteSpace=wrap;html=1;align=center;" parent="1" vertex="1">
          <mxGeometry x="570" y="720" width="100" height="40" as="geometry" />
        </mxCell>
        <mxCell id="r7K02Fi8UwTzBW3lLoMd-19" style="rounded=0;orthogonalLoop=1;jettySize=auto;html=1;endArrow=ERone;endFill=0;edgeStyle=orthogonalEdgeStyle;endSize=12;" parent="1" source="r7K02Fi8UwTzBW3lLoMd-18" target="gsU7J_CmsxOtAL61VXyF-1" edge="1">
          <mxGeometry relative="1" as="geometry">
            <mxPoint x="550" y="630" as="sourcePoint" />
            <mxPoint x="430" y="730" as="targetPoint" />
          </mxGeometry>
        </mxCell>
        <mxCell id="r7K02Fi8UwTzBW3lLoMd-20" style="rounded=0;orthogonalLoop=1;jettySize=auto;html=1;endArrow=ERzeroToMany;endFill=0;edgeStyle=orthogonalEdgeStyle;endSize=12;" parent="1" source="r7K02Fi8UwTzBW3lLoMd-18" target="r7K02Fi8UwTzBW3lLoMd-2" edge="1">
          <mxGeometry relative="1" as="geometry">
            <mxPoint x="580" y="750" as="sourcePoint" />
            <mxPoint x="490" y="750" as="targetPoint" />
          </mxGeometry>
        </mxCell>
        <mxCell id="r7K02Fi8UwTzBW3lLoMd-21" value="guanya" style="shape=rhombus;perimeter=rhombusPerimeter;whiteSpace=wrap;html=1;align=center;" parent="1" vertex="1">
          <mxGeometry x="570" y="920" width="100" height="40" as="geometry" />
        </mxCell>
        <mxCell id="r7K02Fi8UwTzBW3lLoMd-22" style="rounded=0;orthogonalLoop=1;jettySize=auto;html=1;endArrow=ERone;endFill=0;edgeStyle=orthogonalEdgeStyle;endSize=12;" parent="1" source="r7K02Fi8UwTzBW3lLoMd-21" target="gsU7J_CmsxOtAL61VXyF-1" edge="1">
          <mxGeometry relative="1" as="geometry">
            <mxPoint x="580" y="750" as="sourcePoint" />
            <mxPoint x="490" y="750" as="targetPoint" />
          </mxGeometry>
        </mxCell>
        <mxCell id="r7K02Fi8UwTzBW3lLoMd-23" style="rounded=0;orthogonalLoop=1;jettySize=auto;html=1;endArrow=ERzeroToMany;endFill=0;edgeStyle=orthogonalEdgeStyle;endSize=12;" parent="1" source="r7K02Fi8UwTzBW3lLoMd-21" target="r7K02Fi8UwTzBW3lLoMd-9" edge="1">
          <mxGeometry relative="1" as="geometry">
            <mxPoint x="680" y="750" as="sourcePoint" />
            <mxPoint x="770" y="750" as="targetPoint" />
          </mxGeometry>
        </mxCell>
        <mxCell id="r7K02Fi8UwTzBW3lLoMd-24" value="conté" style="shape=rhombus;perimeter=rhombusPerimeter;whiteSpace=wrap;html=1;align=center;" parent="1" vertex="1">
          <mxGeometry x="770" y="820" width="100" height="40" as="geometry" />
        </mxCell>
        <mxCell id="r7K02Fi8UwTzBW3lLoMd-25" style="rounded=0;orthogonalLoop=1;jettySize=auto;html=1;endArrow=ERzeroToMany;endFill=0;edgeStyle=orthogonalEdgeStyle;endSize=12;" parent="1" source="r7K02Fi8UwTzBW3lLoMd-24" target="r7K02Fi8UwTzBW3lLoMd-9" edge="1">
          <mxGeometry relative="1" as="geometry">
            <mxPoint x="680" y="750" as="sourcePoint" />
            <mxPoint x="770" y="750" as="targetPoint" />
          </mxGeometry>
        </mxCell>
        <mxCell id="r7K02Fi8UwTzBW3lLoMd-26" style="rounded=0;orthogonalLoop=1;jettySize=auto;html=1;endArrow=ERone;endFill=0;edgeStyle=orthogonalEdgeStyle;endSize=12;" parent="1" source="r7K02Fi8UwTzBW3lLoMd-24" target="r7K02Fi8UwTzBW3lLoMd-2" edge="1">
          <mxGeometry relative="1" as="geometry">
            <mxPoint x="580" y="750" as="sourcePoint" />
            <mxPoint x="490" y="750" as="targetPoint" />
          </mxGeometry>
        </mxCell>
        <mxCell id="r7K02Fi8UwTzBW3lLoMd-27" style="rounded=0;orthogonalLoop=1;jettySize=auto;html=1;endArrow=ERzeroToMany;endFill=0;edgeStyle=orthogonalEdgeStyle;endSize=12;" parent="1" source="r7K02Fi8UwTzBW3lLoMd-29" target="r7K02Fi8UwTzBW3lLoMd-2" edge="1">
          <mxGeometry relative="1" as="geometry">
            <mxPoint x="819.3999999999996" y="600" as="sourcePoint" />
            <mxPoint x="430" y="730" as="targetPoint" />
          </mxGeometry>
        </mxCell>
        <mxCell id="r7K02Fi8UwTzBW3lLoMd-29" value="porta" style="shape=rhombus;perimeter=rhombusPerimeter;whiteSpace=wrap;html=1;align=center;" parent="1" vertex="1">
          <mxGeometry x="770" y="560" width="100" height="40" as="geometry" />
        </mxCell>
        <mxCell id="PpErxbmFMA0frRZ9p7Yt-1" value="Km" style="ellipse;whiteSpace=wrap;html=1;align=center;" parent="1" vertex="1">
          <mxGeometry x="680" y="770" width="100" height="40" as="geometry" />
        </mxCell>
        <mxCell id="PpErxbmFMA0frRZ9p7Yt-2" style="rounded=0;orthogonalLoop=1;jettySize=auto;html=1;endArrow=none;endFill=0;" parent="1" source="PpErxbmFMA0frRZ9p7Yt-1" target="r7K02Fi8UwTzBW3lLoMd-2" edge="1">
          <mxGeometry relative="1" as="geometry">
            <mxPoint x="891" y="784" as="sourcePoint" />
            <mxPoint x="866" y="770" as="targetPoint" />
          </mxGeometry>
        </mxCell>
      </root>
    </mxGraphModel>
  </diagram>
</mxfile>
